External Loads File
version=1
nRows=78
nColumns=13
Range=5.000000e-03-10 seconds
endheader
time 	forceRightX 	forceRightY 	forceRightZ 	pointRightX 	pointRightY 	pointRightZ 	forceLeftX 	forceLeftY 	forceLeftZ 	pointLeftX 	pointLeftY 	pointLeftZ 		
7.505000 21.610840 -59.409682 -0.000000 0.118170 0.238652 -0.163164 -227.610961 519.052155 -0.000000 0.385565 0.391450 -0.413981
7.510000 16.475516 -60.526034 -0.000000 0.115287 0.247799 -0.163193 -243.314707 558.699961 -0.000000 0.388541 0.381626 -0.413869
7.515000 12.775452 -58.440194 -0.000000 0.112915 0.257113 -0.163104 -257.361537 590.944294 -0.000000 0.391016 0.371725 -0.413558
7.520000 10.206929 -53.698032 -0.000000 0.111037 0.266747 -0.163203 -268.922353 616.340211 -0.000000 0.393019 0.361551 -0.413460
7.525000 8.604171 -46.880511 -0.000000 0.109619 0.276675 -0.163363 -277.900021 635.793029 -0.000000 0.394655 0.351111 -0.413429
7.530000 7.893707 -38.620772 -0.000000 0.108782 0.286896 -0.163577 -284.458001 650.513444 -0.000000 0.395862 0.340420 -0.413343
7.535000 8.061079 -29.522606 -0.000000 0.108399 0.297287 -0.163849 -289.363873 661.552692 -0.000000 0.396573 0.329774 -0.413269
7.540000 8.994261 -20.101430 -0.000000 0.108567 0.307891 -0.164243 -292.208845 670.310562 -0.000000 0.396721 0.319154 -0.413127
7.545000 10.536212 -10.760339 -0.000000 0.109214 0.318584 -0.164567 -292.087649 678.077395 -0.000000 0.396303 0.308325 -0.413212
7.550000 12.521312 -1.790716 -0.000000 0.110394 0.329359 -0.165025 -288.329563 685.628725 -0.000000 0.395273 0.297305 -0.413357
7.555000 14.787555 6.638113 -0.000000 0.112180 0.340201 -0.165424 -281.447468 692.842926 -0.000000 0.393857 0.286561 -0.413749
7.560000 17.197691 14.402430 -0.000000 0.114367 0.351110 -0.165974 -270.601578 699.899892 -0.000000 0.391475 0.276002 -0.413305
7.565000 19.653961 21.432279 -0.000000 0.117073 0.361842 -0.166529 -256.164877 706.353529 -0.000000 0.388608 0.265580 -0.413269
7.570000 22.156864 27.603792 -0.000000 0.120298 0.372974 -0.167118 -236.736725 712.318803 -0.000000 0.385174 0.255268 -0.413195
7.575000 24.569639 32.923212 -0.000000 0.124185 0.383278 -0.167775 -215.558761 716.299115 -0.000000 0.381192 0.245281 -0.413132
7.580000 26.936535 37.273511 -0.000000 0.128449 0.393579 -0.168268 -191.257754 718.492726 -0.000000 0.376719 0.235487 -0.413002
7.585000 29.248646 40.621293 -0.000000 0.133373 0.403659 -0.168650 -164.636679 718.520349 -0.000000 0.371741 0.225884 -0.412932
7.590000 31.466584 42.975441 -0.000000 0.138712 0.413483 -0.168959 -137.219916 716.057063 -0.000000 0.366285 0.216654 -0.412910
7.595000 33.588015 44.329984 -0.000000 0.144610 0.422813 -0.169175 -109.796148 711.133479 -0.000000 0.360351 0.207739 -0.412786
7.600000 35.563494 44.717151 -0.000000 0.150865 0.431702 -0.169417 -83.591043 703.860063 -0.000000 0.354028 0.199337 -0.412533
7.605000 37.399552 44.115848 -0.000000 0.158016 0.440141 -0.169479 -58.164998 694.714293 -0.000000 0.347326 0.191457 -0.412306
7.610000 38.870555 42.699581 -0.000000 0.164761 0.448231 -0.169694 -35.566082 684.003139 -0.000000 0.340203 0.183934 -0.412071
7.615000 39.945075 40.513465 -0.000000 0.172402 0.456003 -0.169787 -13.721124 672.288215 -0.000000 0.332730 0.176709 -0.411875
7.620000 40.338028 37.913272 -0.000000 0.180647 0.462490 -0.169952 5.568723 659.758706 -0.000000 0.324895 0.170267 -0.411661
7.625000 39.940184 35.190495 -0.000000 0.188758 0.468615 -0.170202 22.577823 646.546840 -0.000000 0.316803 0.164301 -0.411566
7.630000 38.797301 32.512720 -0.000000 0.197676 0.474214 -0.169917 39.344800 632.407599 -0.000000 0.308430 0.158723 -0.411460
7.635000 36.857064 30.177790 -0.000000 0.206663 0.479171 -0.170643 54.784004 616.988071 -0.000000 0.299776 0.153848 -0.411474
7.640000 34.295184 28.228713 -0.000000 0.216421 0.483417 -0.170520 70.537566 599.679651 -0.000000 0.290854 0.149414 -0.411574
7.645000 31.237720 26.746811 -0.000000 0.226381 0.487006 -0.170745 85.796406 580.009624 -0.000000 0.281677 0.145676 -0.411685
7.650000 27.865854 25.660160 -0.000000 0.236341 0.489873 -0.170969 100.286926 557.504951 -0.000000 0.272273 0.142573 -0.411795
7.655000 24.385697 24.756013 -0.000000 0.246692 0.492044 -0.171057 114.469543 531.701929 -0.000000 0.262688 0.140210 -0.411897
7.660000 20.930101 23.795111 -0.000000 0.257206 0.493579 -0.171267 127.732927 502.534770 -0.000000 0.252898 0.138520 -0.412081
7.665000 17.570816 22.505634 -0.000000 0.267911 0.494162 -0.171377 139.102393 470.255527 -0.000000 0.243326 0.137559 -0.412034
7.670000 14.362153 20.601877 -0.000000 0.278627 0.494147 -0.171539 148.279117 435.091984 -0.000000 0.233704 0.137381 -0.412044
7.675000 11.296977 17.888169 -0.000000 0.289304 0.493692 -0.171624 154.342801 397.600068 -0.000000 0.224345 0.137875 -0.412059
7.680000 8.383409 14.250731 -0.000000 0.299841 0.492416 -0.171663 156.988423 358.313595 -0.000000 0.215228 0.138979 -0.412132
7.685000 5.631073 9.718833 -0.000000 0.310119 0.490539 -0.171588 155.956136 317.976797 -0.000000 0.206399 0.140683 -0.412218
7.690000 3.062392 4.517426 -0.000000 0.320009 0.488043 -0.171458 151.376212 277.460205 -0.000000 0.197908 0.143167 -0.412264
7.695000 0.656816 -0.867894 -0.000000 0.329463 0.485096 -0.171290 143.623088 237.733854 -0.000000 0.189776 0.146278 -0.412143
7.700000 -1.733755 -5.690303 -0.000000 0.338563 0.481673 -0.171245 133.426240 199.601427 -0.000000 0.181940 0.150098 -0.412161
7.705000 -4.438471 -9.005893 -0.000000 0.346849 0.477632 -0.170990 121.138459 164.063718 -0.000000 0.174560 0.154407 -0.412037
7.710000 -8.017117 -9.731588 -0.000000 0.354704 0.473090 -0.170619 107.712308 131.707936 -0.000000 0.167613 0.159324 -0.411869
7.715000 -13.211058 -6.695005 -0.000000 0.362001 0.467964 -0.170357 93.852169 103.242735 -0.000000 0.161049 0.164626 -0.411601
7.720000 -20.839891 1.353233 -0.000000 0.368715 0.461600 -0.169718 80.431399 79.045167 -0.000000 0.154879 0.170409 -0.411478
7.725000 -31.612029 15.636158 -0.000000 0.374726 0.455142 -0.169182 68.008770 59.441790 -0.000000 0.149010 0.176777 -0.411403
7.730000 -45.993771 37.330136 -0.000000 0.380106 0.448197 -0.168598 57.215185 44.273836 -0.000000 0.143436 0.183606 -0.411280
7.735000 -64.053534 67.394129 -0.000000 0.384578 0.440310 -0.167707 48.439220 33.168262 -0.000000 0.138172 0.191019 -0.411284
7.740000 -85.424195 106.329776 -0.000000 0.388578 0.431965 -0.166958 41.831105 25.618414 -0.000000 0.133235 0.198975 -0.411101
7.745000 -109.587670 153.748664 -0.000000 0.391736 0.423741 -0.166237 37.362275 21.146040 -0.000000 0.128625 0.207502 -0.410744
7.750000 -135.156137 208.814393 -0.000000 0.394712 0.414930 -0.165996 35.027366 19.169962 -0.000000 0.124409 0.216404 -0.410546
7.755000 -160.645919 269.748125 -0.000000 0.397304 0.405564 -0.165947 34.651306 19.292727 -0.000000 0.120513 0.225709 -0.410485
7.760000 -184.690980 334.129043 -0.000000 0.399690 0.395750 -0.165713 35.927029 21.152603 -0.000000 0.117210 0.235341 -0.410321
7.765000 -206.727015 398.993652 -0.000000 0.401334 0.385705 -0.165605 38.469103 24.471068 -0.000000 0.114438 0.245080 -0.410256
7.770000 -225.267479 462.110219 -0.000000 0.402777 0.375333 -0.165434 42.047486 28.903401 -0.000000 0.112217 0.255098 -0.410289
7.775000 -239.411352 521.260904 -0.000000 0.404116 0.364683 -0.165750 46.503811 34.167453 -0.000000 0.110555 0.265365 -0.410334
7.780000 -249.415772 574.074900 -0.000000 0.404947 0.354022 -0.165902 51.622564 40.041348 -0.000000 0.109375 0.275652 -0.410436
7.785000 -254.713729 619.011937 -0.000000 0.405348 0.343349 -0.166050 57.222157 46.199873 -0.000000 0.108743 0.286007 -0.410450
7.790000 -254.851283 655.025633 -0.000000 0.405286 0.332568 -0.166004 63.127895 52.286658 -0.000000 0.108692 0.296435 -0.410546
7.795000 -250.121884 681.471946 -0.000000 0.404801 0.321784 -0.165827 69.141388 57.960555 -0.000000 0.109151 0.306937 -0.410522
7.800000 -241.650842 698.208308 -0.000000 0.403817 0.311044 -0.165583 75.057306 62.934943 -0.000000 0.110296 0.317316 -0.410666
7.805000 -229.805803 706.143388 -0.000000 0.402339 0.300405 -0.165366 80.799569 66.812290 -0.000000 0.112003 0.327787 -0.410828
7.810000 -216.419648 706.305817 -0.000000 0.400455 0.290066 -0.165141 86.117947 69.330043 -0.000000 0.114316 0.338157 -0.410932
7.815000 -198.710471 701.463596 -0.000000 0.397925 0.279078 -0.165252 91.092460 69.721945 -0.000000 0.117176 0.348892 -0.411055
7.820000 -183.578459 691.590656 -0.000000 0.395102 0.268830 -0.165345 94.781745 68.619762 -0.000000 0.120646 0.358775 -0.411071
7.825000 -167.679622 679.498474 -0.000000 0.391573 0.258944 -0.165201 97.304014 65.549283 -0.000000 0.124647 0.368705 -0.411110
7.830000 -150.700428 666.753868 -0.000000 0.387408 0.249231 -0.165059 98.541326 60.509066 -0.000000 0.129232 0.378549 -0.411147
7.835000 -132.960121 654.482138 -0.000000 0.382675 0.239843 -0.164821 98.338266 53.635604 -0.000000 0.134391 0.388168 -0.411656
7.840000 -113.481518 643.810362 -0.000000 0.377207 0.230724 -0.164615 96.641053 44.897217 -0.000000 0.140183 0.397694 -0.411158
7.845000 -93.502588 635.169340 -0.000000 0.371039 0.221818 -0.164326 93.222389 34.657338 -0.000000 0.145987 0.406708 -0.410230
7.850000 -72.206426 629.088133 -0.000000 0.364290 0.213139 -0.163901 88.066897 23.046190 -0.000000 0.152282 0.415277 -0.409943
7.855000 -47.109800 625.801881 -0.000000 0.356951 0.205033 -0.163594 81.258578 10.016083 -0.000000 0.160706 0.423553 -0.410616
7.860000 -22.865661 624.562999 -0.000000 0.349095 0.197520 -0.163374 72.816350 -3.515987 -0.000000 0.168616 0.431313 -0.410702
7.865000 1.701167 625.052338 -0.000000 0.340915 0.190384 -0.163242 63.041830 -17.447133 -0.000000 0.176878 0.438610 -0.410732
7.870000 26.112968 626.601839 -0.000000 0.332434 0.183670 -0.163069 52.221394 -31.473656 -0.000000 0.185527 0.445303 -0.410730
7.875000 50.051762 628.382350 -0.000000 0.323621 0.177509 -0.162988 40.658156 -45.375959 -0.000000 0.194498 0.451437 -0.410718
7.880000 72.859573 629.445100 -0.000000 0.314736 0.171949 -0.162897 28.669517 -58.981855 -0.000000 0.203690 0.457139 -0.410767
7.885000 95.398204 628.548081 -0.000000 0.305312 0.167061 -0.162994 16.380844 -72.209734 -0.000000 0.213147 0.462362 -0.410766
7.890000 116.794615 624.582822 -0.000000 0.295817 0.162612 -0.162658 4.026247 -84.811993 -0.000000 0.222833 0.466978 -0.410779
